<svg xmlns="http://www.w3.org/2000/svg" width="24.323" height="24.323" viewBox="0 0 24.323 24.323"><path d="M22.586,1.25H1.732A1.745,1.745,0,0,0,0,3V23.819a1.745,1.745,0,0,0,1.732,1.754H22.586a1.749,1.749,0,0,0,1.737-1.754V3A1.749,1.749,0,0,0,22.586,1.25ZM7.351,22.1h-3.6V10.491h3.61V22.1ZM5.549,8.905a2.09,2.09,0,1,1,2.09-2.09A2.091,2.091,0,0,1,5.549,8.905ZM20.864,22.1h-3.6V16.452c0-1.346-.027-3.078-1.873-3.078-1.879,0-2.166,1.466-2.166,2.981V22.1h-3.6V10.491h3.458v1.585h.049A3.8,3.8,0,0,1,16.537,10.2c3.648,0,4.327,2.405,4.327,5.532Z" transform="translate(0 -1.25)" fill="#999291"/></svg>