<svg xmlns="http://www.w3.org/2000/svg" width="26.929" height="26.929" viewBox="0 0 26.929 26.929"><path d="M13.777.312A13.464,13.464,0,1,0,27.241,13.777,13.48,13.48,0,0,0,13.777.312Zm8.9,6.209a11.446,11.446,0,0,1,2.6,7.164,26.876,26.876,0,0,0-8.008-.37c-.312-.762-.607-1.433-1.011-2.259a15.32,15.32,0,0,0,6.422-4.535ZM21.4,5.192a12.985,12.985,0,0,1-6.028,4.154,61.388,61.388,0,0,0-4.291-6.733A11.471,11.471,0,0,1,21.4,5.192ZM8.887,3.387a73.382,73.382,0,0,1,4.264,6.651,42.9,42.9,0,0,1-10.632,1.4A11.543,11.543,0,0,1,8.887,3.387ZM2.276,13.794c0-.118,0-.235.006-.351A42.424,42.424,0,0,0,14.1,11.806c.329.644.644,1.3.932,1.952a17.814,17.814,0,0,0-9.8,7.726A11.455,11.455,0,0,1,2.276,13.794Zm4.441,9.073c1.2-2.456,4.462-5.626,9.1-7.208a47.805,47.805,0,0,1,2.453,8.721A11.477,11.477,0,0,1,6.718,22.867Zm13.485.461a49.638,49.638,0,0,0-2.234-8.2,16.88,16.88,0,0,1,7.164.492A11.521,11.521,0,0,1,20.2,23.328Z" transform="translate(-0.313 -0.313)" fill="#999291"/></svg>