<svg xmlns="http://www.w3.org/2000/svg" width="24.336" height="24.331" viewBox="0 0 24.336 24.331"><path d="M12.168,7.171a6.238,6.238,0,1,0,6.238,6.238A6.228,6.228,0,0,0,12.168,7.171Zm0,10.294a4.056,4.056,0,1,1,4.056-4.056A4.063,4.063,0,0,1,12.168,17.464ZM20.116,6.915A1.455,1.455,0,1,1,18.661,5.46,1.452,1.452,0,0,1,20.116,6.915Zm4.132,1.477a7.2,7.2,0,0,0-1.965-5.1,7.248,7.248,0,0,0-5.1-1.965c-2.009-.114-8.03-.114-10.039,0a7.238,7.238,0,0,0-5.1,1.96,7.224,7.224,0,0,0-1.965,5.1c-.114,2.009-.114,8.03,0,10.039a7.2,7.2,0,0,0,1.965,5.1,7.257,7.257,0,0,0,5.1,1.965c2.009.114,8.03.114,10.039,0a7.2,7.2,0,0,0,5.1-1.965,7.248,7.248,0,0,0,1.965-5.1C24.362,16.416,24.362,10.4,24.248,8.392Zm-2.6,12.189a4.106,4.106,0,0,1-2.313,2.313c-1.6.635-5.4.489-7.172.489S6.592,23.523,5,22.894a4.106,4.106,0,0,1-2.313-2.313c-.635-1.6-.489-5.4-.489-7.172s-.141-5.576.489-7.172A4.106,4.106,0,0,1,5,3.924c1.6-.635,5.4-.489,7.172-.489s5.576-.141,7.172.489a4.106,4.106,0,0,1,2.313,2.313c.635,1.6.489,5.4.489,7.172S22.288,18.984,21.653,20.581Z" transform="translate(0.003 -1.243)" fill="#999291"/></svg>