<svg xmlns="http://www.w3.org/2000/svg" width="27.797" height="22.577" viewBox="0 0 27.797 22.577"><path d="M24.94,7.5c.018.247.018.494.018.741,0,7.531-5.732,16.209-16.209,16.209A16.1,16.1,0,0,1,0,21.9a11.786,11.786,0,0,0,1.376.071,11.41,11.41,0,0,0,7.073-2.434,5.707,5.707,0,0,1-5.327-3.951,7.184,7.184,0,0,0,1.076.088,6.025,6.025,0,0,0,1.5-.194A5.7,5.7,0,0,1,1.129,9.886V9.815a5.738,5.738,0,0,0,2.575.723A5.706,5.706,0,0,1,1.94,2.919,16.194,16.194,0,0,0,13.687,8.88a6.431,6.431,0,0,1-.141-1.305,5.7,5.7,0,0,1,9.86-3.9A11.216,11.216,0,0,0,27.021,2.3a5.682,5.682,0,0,1-2.5,3.14A11.421,11.421,0,0,0,27.8,4.559,12.246,12.246,0,0,1,24.94,7.5Z" transform="translate(0 -1.878)" fill="#999291"/></svg>